<svg id="Artwork" xmlns="http://www.w3.org/2000/svg" viewBox="0 0 1431.486 435.443"><path d="M1323.486,0h0a54,54,0,0,0-54,54h0V216l54-54h54a54,54,0,0,0,54-54V0Zm54,108h-54V54h54Z" fill="#27aa27"/><path d="M1092.209,254.223V229.655c1.5-.212,3.322-.373,4.939-.486s3.174-.161,4.687-.161q12.923,0,21.334,5.5t8.4,19.718v133.3H1103.5q-6.841,0-8.622-3.695t-1.779-10.815l-.225-3.171a75.534,75.534,0,0,1-7.339,7.009,62.933,62.933,0,0,1-10.007,6.836,57.836,57.836,0,0,1-13.01,5.173,63.708,63.708,0,0,1-16.68,2q-29.359,0-44.7-17.513t-15.343-47.2l.056-71.913V229.655c1.5-.212,3.292-.373,4.909-.486s3.177-.161,4.687-.161q12.926,0,21.334,5.5t8.4,19.718l-.029,71.58q0,15.012,8.173,23.187t21.185,8.172a35.948,35.948,0,0,0,15.011-3.169,35.074,35.074,0,0,0,12.011-8.839,42.31,42.31,0,0,0,7.84-13.179,45.51,45.51,0,0,0,2.835-16.181ZM944,377.783a128.645,128.645,0,0,1-25.614,10.858,101.49,101.49,0,0,1-29.5,4.214q-24.315,0-44.418-8.428a103.151,103.151,0,0,1-34.691-23.5,107.347,107.347,0,0,1-22.693-35.5,126.63,126.63,0,0,1,0-89.157,110.681,110.681,0,0,1,22.859-36.308,108.7,108.7,0,0,1,35.174-24.643q20.428-9.071,45.064-9.077a117.621,117.621,0,0,1,29.179,3.4,106.929,106.929,0,0,1,24.155,9.24,81.484,81.484,0,0,1,19.291,13.78c2.254,2.256,5.4,5.514,6.514,6.94a20.32,20.32,0,0,1,2.978,5.518,11.886,11.886,0,0,1,.475,6.34,16.993,16.993,0,0,1-5.7,9.317c-3.154,2.87-14.919,11.462-19.655,13.979l.008.013a87.964,87.964,0,0,0-23.166-22.7q-13.628-8.974-34.134-8.975a62.237,62.237,0,0,0-28.208,6.248A66.677,66.677,0,0,0,840.605,226a72.926,72.926,0,0,0-13.462,24.362,92.069,92.069,0,0,0-4.648,29.327,87.775,87.775,0,0,0,4.648,28.849,69.907,69.907,0,0,0,13.3,23.4,63.627,63.627,0,0,0,20.675,15.708,61.815,61.815,0,0,0,27.083,5.766q13.781,0,23.559-3.2A62.675,62.675,0,0,0,939.966,332.1q4.647-5.291,8.5-9.136a186.51,186.51,0,0,1,17.429,13.805,50.37,50.37,0,0,1,4.124,4.134,11.444,11.444,0,0,1,2.428,4.148,10.463,10.463,0,0,1,.322,5.249,22.233,22.233,0,0,1-2.272,5.523A27.744,27.744,0,0,1,967,360.482c-3.912,4.413-14.763,12.7-23,17.3M757.786,228.51c-1.814-.182-5.394-.452-8.481-.452a58.023,58.023,0,0,0-17.179,2.335,62.737,62.737,0,0,0-13.178,5.674,52.36,52.36,0,0,0-9.842,7.337,77.774,77.774,0,0,0-6.838,7.339,33.193,33.193,0,0,0-.483-5.3,16.492,16.492,0,0,0-8.671-11.211,34.568,34.568,0,0,0-16.314-3.641q-3.24,0-5.587.145c-1.571.1-2.939.248-4.114.44q-2.062.3-3.529.588V387.519h39.365v-84.4a37.124,37.124,0,0,1,11.676-27.689,36.553,36.553,0,0,1,12.678-7.671,44.537,44.537,0,0,1,15.343-2.671,63.513,63.513,0,0,1,9.841.667,36.444,36.444,0,0,1,8.178,2.336c1.326-2.908,5.8-15.683,7.043-19.752a31.183,31.183,0,0,0,1.388-11.052,8.005,8.005,0,0,0-1.833-4.774,10.223,10.223,0,0,0-4.106-2.827,21.05,21.05,0,0,0-5.357-1.175m-402.4,116.243a50.433,50.433,0,0,0,35.361,14.078,41.948,41.948,0,0,0,19.018-4.171,44.733,44.733,0,0,0,14.178-11.009,47.817,47.817,0,0,0,8.84-15.512,54.771,54.771,0,0,0,3-18.014,76.984,76.984,0,0,0-2.167-18.683,42.456,42.456,0,0,0-7.007-15.18,34.611,34.611,0,0,0-12.51-10.339q-7.677-3.834-19.015-3.836a34.741,34.741,0,0,0-16.345,3.836,41.907,41.907,0,0,0-12.512,9.841,45.825,45.825,0,0,0-8,13.176,37.517,37.517,0,0,0-2.837,13.843ZM316.35,231.761c.976-.192,2.154-.389,3.526-.588,1.178-.192,2.545-.338,4.117-.44s3.424-.145,5.584-.145a34.58,34.58,0,0,1,16.317,3.641,16.5,16.5,0,0,1,8.671,11.211,23.147,23.147,0,0,1,.414,3.494,74.949,74.949,0,0,1,7.909-7.2,54.654,54.654,0,0,1,10.674-6.67,73.672,73.672,0,0,1,14.012-5,70.732,70.732,0,0,1,17.513-2q18.017,0,31.19,7.007a65.4,65.4,0,0,1,21.855,18.515,81.465,81.465,0,0,1,13.01,26.186,106.715,106.715,0,0,1,4.337,30.359q0,18.346-5.339,31.359A87.229,87.229,0,0,1,456.8,364.167q-13.347,16.011-29.192,22.35a86.916,86.916,0,0,1-32.526,6.338c-14.441,0-30.145-5.827-39.7-12.739V434.3a21.34,21.34,0,0,1-5.456.859q-4.024.284-8.9.289a42.407,42.407,0,0,1-9.333-1A19.421,19.421,0,0,1,323.8,430.7a18.573,18.573,0,0,1-5.456-7.316,29.555,29.555,0,0,1-2.008-11.774Zm854.52-.7V199.433a19.729,19.729,0,0,1,2.315-10.168,17.5,17.5,0,0,1,6.08-6.149,23.481,23.481,0,0,1,8.392-3.013,57.568,57.568,0,0,1,9.261-.753q2.324,0,4.633.125t4.34.378q2.322.253,4.341.5V231.06h44.194L1222.4,263.086h-12.168v68.388q0,13.347,4.508,20.518c3,4.784,8.071,7.166,16.517,7.166a22.836,22.836,0,0,0,8.037-1.423,46.621,46.621,0,0,0,6.818-3.144,36.621,36.621,0,0,0,5.31-3.613q2.269-1.886,3.182-2.832a106.786,106.786,0,0,1,6.974,11.975,22.149,22.149,0,0,1,2.428,9.5,12.872,12.872,0,0,1-3.187,8.1,31.517,31.517,0,0,1-8.945,7.3,54.385,54.385,0,0,1-13.948,5.395,66.843,66.843,0,0,1-17.888,2.065,58.25,58.25,0,0,1-21.479-4.13,39.986,39.986,0,0,1-16.179-11.842A46.884,46.884,0,0,1,1173.538,358a99.631,99.631,0,0,1-2.668-23.85V263.086h-26.687V231.06ZM256.448,332.144a21.874,21.874,0,0,1-3.169,11.341,34.366,34.366,0,0,1-8.172,9.34,40.608,40.608,0,0,1-25.024,8.674q-14.01,0-21.182-5.671t-7.171-15.68q0-9.672,7.672-17.179t26.687-7.5q3.672,0,8.842.166t9.841.5q5.67.338,11.676.667Zm-77.621-97.089a41.607,41.607,0,0,0-11.124,7.191q-3.968,3.814-3.68,7.587.2,2.7,2.941,8.053a58.556,58.556,0,0,0,11.421,14.208,118.916,118.916,0,0,1,17.682-9.34q10.008-4.332,26.687-4.337,15.015,0,24.354,6.67a21.348,21.348,0,0,1,9.34,18.349v3.669q-6.34-.328-12.343-.667-5.34-.325-11.006-.5t-10.345-.167a100.673,100.673,0,0,0-28.021,3.67,62.081,62.081,0,0,0-21.684,10.841,49.539,49.539,0,0,0-14.012,17.681,54.856,54.856,0,0,0-5,23.853q0,13.011,4.837,22.686a45.842,45.842,0,0,0,12.675,15.844,54.1,54.1,0,0,0,17.347,9.174,63.275,63.275,0,0,0,19.182,3,68.406,68.406,0,0,0,29.026-6.008q13.01-6,19.347-13.677c0,4.748.591,8.52,1.782,10.984s4.058,3.695,8.622,3.695h27.293V282.434a55.654,55.654,0,0,0-4.672-22.851,50.879,50.879,0,0,0-13.342-18.014,62.414,62.414,0,0,0-20.851-11.677,83.545,83.545,0,0,0-27.188-4.168,144.067,144.067,0,0,0-24.52,1.835c-2.862.5-5.6.994-8.165,1.664a95.841,95.841,0,0,0-16.58,5.832m-30.344-10.588A67.809,67.809,0,0,0,135.1,199.362q-9.675-11.71-26.22-19.708t-42.585-8H26.051a57.4,57.4,0,0,0-9.261.754A23.516,23.516,0,0,0,8.4,175.422a17.486,17.486,0,0,0-6.077,6.151A19.716,19.716,0,0,0,0,191.739v195.78H40.367V327.485h28.9a101.806,101.806,0,0,0,29.378-4.462,78.937,78.937,0,0,0,26.78-13.948,71.488,71.488,0,0,0,19.337-24.356q7.437-14.874,7.439-35.706a92.522,92.522,0,0,0-3.718-24.546m-51.43,56.1Q85.315,292.1,65.549,292.1H40.367V206.844H65.549q18.529,0,30.888,12.149T108.791,250.5q0,18.534-11.738,30.066m1184.874,91.587h-5.5v-2.62h13.8v2.62h-5.5v15.366h-2.794Zm24.137,3.823-3.667,9.361H1298.9l-3.844-10.054v12.236h-2.88V369.533h3.406l5.063,13.708,5.152-13.708h3.143v17.986h-2.88Zm-685.79-35.164a157.41,157.41,0,0,1,12.872,13.511,41.5,41.5,0,0,1,2.947,3.92,9.632,9.632,0,0,1,1.536,3.731,8.783,8.783,0,0,1-.348,4.4,18.631,18.631,0,0,1-2.53,4.324,22.991,22.991,0,0,1-3.45,3.468c-8.446,7.2-19.376,11.494-29.879,14.689q-13.182,4-31.525,4a88.374,88.374,0,0,1-34.029-6.338A74.729,74.729,0,0,1,493,342.151a98.7,98.7,0,0,1-5.837-34.7A87.143,87.143,0,0,1,493,275.263a78.711,78.711,0,0,1,16.345-25.854,76.489,76.489,0,0,1,25.021-17.347,79.635,79.635,0,0,1,32.194-6.338q21.345,0,36.194,7.836a67.2,67.2,0,0,1,23.853,20.52,84.409,84.409,0,0,1,13.013,28.689,134.34,134.34,0,0,1,4,32.695v5.671H526.862a32.057,32.057,0,0,0,3.836,15.678,40.023,40.023,0,0,0,10.008,12.008A45.013,45.013,0,0,0,554.72,356.5a47.825,47.825,0,0,0,15.512,2.668,79.232,79.232,0,0,0,34.359-7.171,46.648,46.648,0,0,0,9.841-6q3.83-3.167,5.842-5.175m-17.017-48.036a32.989,32.989,0,0,0-2.336-12.008,33.8,33.8,0,0,0-6.838-10.843,35.561,35.561,0,0,0-11.508-8.007,38.5,38.5,0,0,0-16.013-3.169,43.85,43.85,0,0,0-17.18,3.169,40.471,40.471,0,0,0-12.51,8.007,34.432,34.432,0,0,0-7.676,10.843,29.315,29.315,0,0,0-2.668,12.008Z" fill="#3b3b3d"/></svg>